<svg width="221" height="124" viewBox="0 0 221 124" fill="none" xmlns="http://www.w3.org/2000/svg">
<path fill-rule="evenodd" clip-rule="evenodd" d="M27.5 100C42.6878 100 55 87.6878 55 72.5C55 57.3122 42.6878 45 27.5 45C12.3122 45 0 57.3122 0 72.5C0 87.6878 12.3122 100 27.5 100ZM27.5 89C36.6127 89 44 81.6127 44 72.5C44 63.3873 36.6127 56 27.5 56C18.3873 56 11 63.3873 11 72.5C11 81.6127 18.3873 89 27.5 89Z" fill="white"/>
<path fill-rule="evenodd" clip-rule="evenodd" d="M145.5 100C160.688 100 173 87.6878 173 72.5C173 57.3122 160.688 45 145.5 45C130.312 45 118 57.3122 118 72.5C118 87.6878 130.312 100 145.5 100ZM145.5 89C154.613 89 162 81.6127 162 72.5C162 63.3873 154.613 56 145.5 56C136.387 56 129 63.3873 129 72.5C129 81.6127 136.387 89 145.5 89Z" fill="white"/>
<path d="M168.082 52L167.999 94" stroke="white" stroke-width="11" stroke-linecap="round"/>
<path d="M72.0493 48.5208C70.8451 45.7321 67.6083 44.4476 64.8196 45.6518C62.0309 46.856 60.7465 50.0929 61.9507 52.8816L72.0493 48.5208ZM80.9507 96.8816L83.1311 101.931L93.2297 97.5701L91.0493 92.5208L80.9507 96.8816ZM61.9507 52.8816L80.9507 96.8816L91.0493 92.5208L72.0493 48.5208L61.9507 52.8816Z" fill="white"/>
<path d="M108.643 50.4688L81.0005 118.201" stroke="white" stroke-width="11" stroke-linecap="round"/>
<path d="M168 5H168.962C194.643 5 215.462 25.8188 215.462 51.5V51.5" stroke="white" stroke-width="10" stroke-linecap="round"/>
<path d="M170.887 24.5625H171.528C186.051 24.5625 197.825 36.3359 197.825 50.8591V50.8591" stroke="white" stroke-width="10" stroke-linecap="round"/>
</svg>
